<?xml version="1.0" encoding="UTF-8" standalone="no"?>
<!-- Created with Inkscape (http://www.inkscape.org/) -->

<svg
   xmlns:svg="http://www.w3.org/2000/svg"
   xmlns="http://www.w3.org/2000/svg"
   version="1.2"
   width="261.85883"
   height="111.03432"
   id="svg2890">
  <defs
     id="defs2892" />
  <g
     transform="translate(-65.276991,-217.87503)"
     id="layer1">
    <rect
       width="260.81766"
       height="109.99316"
       x="65.797577"
       y="218.39561"
       id="rect3694"
       style="fill:#ffffff;fill-opacity:1;stroke:#000000;stroke-width:1.04117191;stroke-opacity:1" />
    <rect
       width="14.171626"
       height="78.048973"
       x="78.508186"
       y="234.92026"
       id="rect3688"
       style="fill:#a9d3ff;fill-opacity:1;stroke:#000000;stroke-width:1.28613186;stroke-opacity:1" />
    <rect
       width="16.129955"
       height="78.072998"
       x="93.175827"
       y="234.96588"
       id="rect3690"
       style="fill:#708a99;fill-opacity:1;stroke:#000000;stroke-width:1.37233186;stroke-opacity:1" />
    <rect
       width="15.116445"
       height="78.00473"
       x="109.59647"
       y="234.94237"
       id="rect3692"
       style="fill:#7d8bf3;fill-opacity:1;stroke:#000000;stroke-width:1.32793665;stroke-opacity:1" />
    <g
       id="text2834"
       style="font-size:36px;font-style:normal;font-variant:normal;font-weight:normal;font-stretch:normal;text-align:center;line-height:125%;writing-mode:lr-tb;text-anchor:middle;fill:#000000;fill-opacity:1;stroke:none;font-family:DejaVu Sans;-inkscape-font-specification:DejaVu Sans">
      <path
         d="m 136.37082,235.38593 3.55078,0 0,10.75781 12.90234,0 0,-10.75781 3.55079,0 0,26.24414 -3.55079,0 0,-12.49805 -12.90234,0 0,12.49805 -3.55078,0 0,-26.24414"
         id="path2845" />
      <path
         d="m 170.92941,244.21014 c -1.73438,2e-5 -3.10547,0.67971 -4.11328,2.03907 -1.00782,1.34767 -1.51172,3.19923 -1.51172,5.55468 0,2.35548 0.49804,4.2129 1.49414,5.57227 1.00781,1.34766 2.38476,2.02149 4.13086,2.02148 1.72265,10e-6 3.08788,-0.67968 4.09571,-2.03906 1.00779,-1.35937 1.5117,-3.21093 1.51171,-5.55469 -1e-5,-2.33202 -0.50392,-4.17772 -1.51171,-5.53711 -1.00783,-1.37107 -2.37306,-2.05662 -4.09571,-2.05664 m 0,-2.74218 c 2.81249,2e-5 5.02147,0.91408 6.62696,2.74218 1.60545,1.82814 2.40818,4.35939 2.4082,7.59375 -2e-5,3.22267 -0.80275,5.75391 -2.4082,7.59375 -1.60549,1.82813 -3.81447,2.74219 -6.62696,2.74219 -2.82422,0 -5.03907,-0.91406 -6.64453,-2.74219 -1.59375,-1.83984 -2.39063,-4.37108 -2.39062,-7.59375 -1e-5,-3.23436 0.79687,-5.76561 2.39062,-7.59375 1.60546,-1.8281 3.82031,-2.74216 6.64453,-2.74218"
         id="path2847" />
      <path
         d="m 196.71652,244.966 c -0.36329,-0.21092 -0.76173,-0.36326 -1.19531,-0.45703 -0.42189,-0.10545 -0.89064,-0.15818 -1.40625,-0.1582 -1.82814,2e-5 -3.23438,0.59767 -4.21875,1.79297 -0.97266,1.18361 -1.45899,2.88868 -1.45898,5.11523 l 0,10.3711 -3.25196,0 0,-19.6875 3.25196,0 0,3.05859 c 0.67968,-1.1953 1.56444,-2.08006 2.65429,-2.6543 1.08984,-0.58591 2.41405,-0.87888 3.97266,-0.8789 0.22264,2e-5 0.46873,0.0176 0.73828,0.0527 0.26952,0.0235 0.56834,0.0645 0.89648,0.12305 l 0.0176,3.32226"
         id="path2849" />
      <path
         d="m 200.14426,241.94257 3.23437,0 0,19.6875 -3.23437,0 0,-19.6875 m 0,-7.66407 3.23437,0 0,4.09571 -3.23437,0 0,-4.09571"
         id="path2851" />
      <path
         d="m 208.72238,241.94257 15.36328,0 0,2.95312 -12.16406,14.15039 12.16406,0 0,2.58399 -15.80273,0 0,-2.95313 12.16406,-14.15039 -11.72461,0 0,-2.58398"
         id="path2853" />
      <path
         d="m 236.6716,244.21014 c -1.73438,2e-5 -3.10548,0.67971 -4.11328,2.03907 -1.00782,1.34767 -1.51173,3.19923 -1.51172,5.55468 -1e-5,2.35548 0.49804,4.2129 1.49414,5.57227 1.00781,1.34766 2.38476,2.02149 4.13086,2.02148 1.72264,10e-6 3.08788,-0.67968 4.0957,-2.03906 1.0078,-1.35937 1.51171,-3.21093 1.51172,-5.55469 -1e-5,-2.33202 -0.50392,-4.17772 -1.51172,-5.53711 -1.00782,-1.37107 -2.37306,-2.05662 -4.0957,-2.05664 m 0,-2.74218 c 2.81249,2e-5 5.02147,0.91408 6.62695,2.74218 1.60545,1.82814 2.40819,4.35939 2.40821,7.59375 -2e-5,3.22267 -0.80276,5.75391 -2.40821,7.59375 -1.60548,1.82813 -3.81446,2.74219 -6.62695,2.74219 -2.82423,0 -5.03907,-0.91406 -6.64453,-2.74219 -1.59375,-1.83984 -2.39063,-4.37108 -2.39063,-7.59375 0,-3.23436 0.79688,-5.76561 2.39063,-7.59375 1.60546,-1.8281 3.8203,-2.74216 6.64453,-2.74218"
         id="path2855" />
      <path
         d="m 267.41574,249.74725 0,11.88282 -3.23437,0 0,-11.77735 c -2e-5,-1.86327 -0.3633,-3.2578 -1.08985,-4.18359 -0.72657,-0.92577 -1.81642,-1.38866 -3.26953,-1.38867 -1.7461,1e-5 -3.12305,0.55665 -4.13086,1.66992 -1.00782,1.11329 -1.51172,2.63087 -1.51172,4.55273 l 0,11.12696 -3.25195,0 0,-19.6875 3.25195,0 0,3.05859 c 0.77343,-1.18358 1.68164,-2.06834 2.72461,-2.6543 1.05468,-0.58591 2.26757,-0.87888 3.63867,-0.8789 2.26171,2e-5 3.97264,0.70314 5.13282,2.10937 1.16013,1.39455 1.74021,3.45119 1.74023,6.16992"
         id="path2857" />
      <path
         d="m 277.10129,236.35272 0,5.58985 6.66211,0 0,2.51367 -6.66211,0 0,10.6875 c -1e-5,1.60547 0.21679,2.63672 0.65039,3.09375 0.4453,0.45703 1.34179,0.68555 2.68945,0.68554 l 3.32227,0 0,2.70704 -3.32227,0 c -2.4961,0 -4.21875,-0.46289 -5.16797,-1.38868 -0.94922,-0.93749 -1.42383,-2.63671 -1.42383,-5.09765 l 0,-10.6875 -2.37304,0 0,-2.51367 2.37304,0 0,-5.58985 3.25196,0"
         id="path2859" />
      <path
         d="m 296.98215,251.73358 c -2.61329,1e-5 -4.42384,0.29884 -5.43164,0.89649 -1.00782,0.59766 -1.51173,1.61719 -1.51172,3.05859 -1e-5,1.14844 0.37499,2.0625 1.125,2.74219 0.76171,0.66797 1.79296,1.00195 3.09375,1.00195 1.79296,0 3.2285,-0.63281 4.30664,-1.89844 1.08983,-1.27734 1.63475,-2.97069 1.63476,-5.08008 l 0,-0.7207 -3.21679,0 m 6.45117,-1.33594 0,11.23243 -3.23438,0 0,-2.98829 c -0.73829,1.19532 -1.65821,2.08008 -2.75976,2.6543 -1.10158,0.5625 -2.44923,0.84375 -4.04297,0.84375 -2.01563,0 -3.6211,-0.5625 -4.81641,-1.6875 -1.18359,-1.13671 -1.77539,-2.65429 -1.77539,-4.55273 0,-2.21484 0.73828,-3.88476 2.21485,-5.00977 1.48827,-1.12499 3.70311,-1.68749 6.64453,-1.6875 l 4.53515,0 0,-0.3164 c -10e-6,-1.48827 -0.4922,-2.63671 -1.47656,-3.44532 -0.97267,-0.82029 -2.34376,-1.23045 -4.11328,-1.23047 -1.12501,2e-5 -2.22071,0.13479 -3.28711,0.4043 -1.06641,0.26955 -2.0918,0.67385 -3.07617,1.21289 l 0,-2.98828 c 1.18359,-0.45701 2.33202,-0.79686 3.44531,-1.01953 1.11327,-0.23436 2.19726,-0.35154 3.25195,-0.35156 2.84765,2e-5 4.9746,0.7383 6.38086,2.21484 1.40624,1.47658 2.10936,3.71486 2.10938,6.71484"
         id="path2861" />
      <path
         d="m 310.11301,234.2785 3.23437,0 0,27.35157 -3.23437,0 0,-27.35157"
         id="path2863" />
      <path
         d="m 167.09738,280.38593 3.55078,0 0,23.25585 12.7793,0 0,2.98829 -16.33008,0 0,-26.24414"
         id="path2865" />
      <path
         d="m 195.94308,296.73358 c -2.61329,10e-6 -4.42383,0.29884 -5.43164,0.89649 -1.00781,0.59766 -1.51172,1.61719 -1.51171,3.05859 -1e-5,1.14844 0.37499,2.0625 1.125,2.74219 0.76171,0.66797 1.79296,1.00195 3.09375,1.00195 1.79295,0 3.2285,-0.63281 4.30664,-1.89844 1.08982,-1.27734 1.63475,-2.97069 1.63476,-5.08008 l 0,-0.7207 -3.2168,0 m 6.45118,-1.33594 0,11.23243 -3.23438,0 0,-2.98829 c -0.73829,1.19532 -1.65822,2.08008 -2.75976,2.6543 -1.10158,0.5625 -2.44923,0.84375 -4.04297,0.84375 -2.01563,0 -3.6211,-0.5625 -4.81641,-1.6875 -1.1836,-1.13671 -1.77539,-2.65429 -1.77539,-4.55273 0,-2.21484 0.73828,-3.88476 2.21484,-5.00977 1.48828,-1.12499 3.70312,-1.68749 6.64454,-1.6875 l 4.53515,0 0,-0.3164 c -10e-6,-1.48827 -0.4922,-2.63671 -1.47656,-3.44532 -0.97267,-0.82029 -2.34376,-1.23045 -4.11328,-1.23047 -1.12501,2e-5 -2.22071,0.13479 -3.28711,0.4043 -1.06641,0.26955 -2.0918,0.67385 -3.07617,1.21289 l 0,-2.98828 c 1.18359,-0.45701 2.33202,-0.79686 3.44531,-1.01953 1.11327,-0.23436 2.19726,-0.35154 3.25195,-0.35156 2.84765,2e-5 4.9746,0.7383 6.38086,2.21484 1.40623,1.47658 2.10936,3.71486 2.10938,6.71484"
         id="path2867" />
      <path
         d="m 217.26535,308.45819 c -0.91407,2.34375 -1.8047,3.87304 -2.67187,4.58789 -0.8672,0.71484 -2.02736,1.07226 -3.48047,1.07227 l -2.58399,0 0,-2.70703 1.89844,0 c 0.89062,-10e-6 1.58202,-0.21095 2.07422,-0.63282 0.49218,-0.42188 1.0371,-1.41797 1.63476,-2.98828 l 0.58008,-1.47656 -7.96289,-19.37109 3.42774,0 6.15234,15.39843 6.15234,-15.39843 3.42774,0 -8.64844,21.51562"
         id="path2869" />
      <path
         d="m 238.00754,289.21014 c -1.73439,2e-5 -3.10548,0.67971 -4.11328,2.03907 -1.00782,1.34767 -1.51173,3.19923 -1.51172,5.55468 -1e-5,2.35548 0.49804,4.2129 1.49414,5.57227 1.0078,1.34766 2.38475,2.02149 4.13086,2.02148 1.72264,10e-6 3.08787,-0.67968 4.0957,-2.03906 1.0078,-1.35937 1.5117,-3.21093 1.51172,-5.55469 -2e-5,-2.33202 -0.50392,-4.17772 -1.51172,-5.53711 -1.00783,-1.37107 -2.37306,-2.05662 -4.0957,-2.05664 m 0,-2.74218 c 2.81248,2e-5 5.02147,0.91408 6.62695,2.74218 1.60545,1.82814 2.40818,4.35939 2.4082,7.59375 -2e-5,3.22267 -0.80275,5.75391 -2.4082,7.59375 -1.60548,1.82813 -3.81447,2.74219 -6.62695,2.74219 -2.82423,0 -5.03907,-0.91406 -6.64453,-2.74219 -1.59376,-1.83984 -2.39063,-4.37108 -2.39063,-7.59375 0,-3.23436 0.79687,-5.76561 2.39063,-7.59375 1.60546,-1.8281 3.8203,-2.74216 6.64453,-2.74218"
         id="path2871" />
      <path
         d="m 252.05246,298.86053 0,-11.91796 3.23437,0 0,11.79492 c 0,1.86329 0.36328,3.26367 1.08985,4.20117 0.72655,0.92578 1.8164,1.38867 3.26953,1.38867 1.74608,0 3.12303,-0.55664 4.13086,-1.66992 1.01951,-1.11328 1.52928,-2.63085 1.5293,-4.55273 l 0,-11.16211 3.23437,0 0,19.6875 -3.23437,0 0,-3.02344 c -0.78518,1.19531 -1.69924,2.08594 -2.74219,2.67187 -1.03126,0.57422 -2.23243,0.86133 -3.60352,0.86133 -2.26172,0 -3.97852,-0.70312 -5.15039,-2.10937 -1.17188,-1.40625 -1.75781,-3.46289 -1.75781,-6.16993 m 8.13867,-12.39257 0,0"
         id="path2873" />
      <path
         d="m 278.43723,281.35272 0,5.58985 6.6621,0 0,2.51367 -6.6621,0 0,10.6875 c -10e-6,1.60547 0.21679,2.63672 0.65039,3.09375 0.4453,0.45703 1.34178,0.68555 2.68945,0.68554 l 3.32226,0 0,2.70704 -3.32226,0 c -2.4961,0 -4.21876,-0.46289 -5.16797,-1.38868 -0.94922,-0.93749 -1.42383,-2.63671 -1.42383,-5.09765 l 0,-10.6875 -2.37304,0 0,-2.51367 2.37304,0 0,-5.58985 3.25196,0"
         id="path2875" />
    </g>
  </g>
</svg>
