<?xml version="1.0" encoding="UTF-8" standalone="no"?>
<!-- Created with Inkscape (http://www.inkscape.org/) -->

<svg
   xmlns:svg="http://www.w3.org/2000/svg"
   xmlns="http://www.w3.org/2000/svg"
   version="1.2"
   width="261.85883"
   height="111.03432"
   id="svg2890">
  <defs
     id="defs2892" />
  <g
     transform="translate(-65.276991,-217.87503)"
     id="layer1">
    <rect
       width="260.81766"
       height="109.99316"
       x="65.797577"
       y="218.39561"
       id="rect3694"
       style="fill:#ffffff;fill-opacity:1;stroke:#000000;stroke-width:1.04117191;stroke-opacity:1" />
    <g
       id="text3210"
       style="font-size:14px;font-style:normal;font-variant:normal;font-weight:normal;font-stretch:normal;text-align:center;line-height:125%;writing-mode:lr-tb;text-anchor:middle;fill:#000000;fill-opacity:1;stroke:none;font-family:DejaVu Sans;-inkscape-font-specification:DejaVu Sans">
      <path
         d="m 159.78337,243.09531 5.26367,0 0,18.42968 c 0,2.54297 -0.69271,4.44336 -2.07812,5.70118 -1.37631,1.2578 -3.46355,1.88671 -6.26172,1.88671 l -1.06641,0 0,-3.97851 0.82032,0 c 1.09375,0 1.91861,-0.30534 2.4746,-0.91602 0.56511,-0.61067 0.84766,-1.50846 0.84766,-2.69336 l 0,-18.42968"
         id="path3239"
         style="font-size:28px;font-weight:bold;-inkscape-font-specification:Bitstream Charter Bold" />
      <path
         d="m 176.87321,256.61679 c -1.02084,1e-5 -1.79102,0.17318 -2.31054,0.51953 -0.51043,0.34636 -0.76563,0.85678 -0.76563,1.53125 0,0.6198 0.20507,1.10743 0.61524,1.46289 0.41926,0.34636 0.99804,0.51954 1.73633,0.51953 0.92056,10e-6 1.6953,-0.32812 2.32421,-0.98437 0.6289,-0.66536 0.94335,-1.49479 0.94336,-2.48828 l 0,-0.56055 -2.54297,0 m 7.47852,-1.8457 0,8.73633 -4.93555,0 0,-2.26954 c -0.65626,0.92969 -1.39454,1.60873 -2.21484,2.03711 -0.82032,0.41927 -1.81837,0.62891 -2.99414,0.62891 -1.58594,0 -2.87566,-0.46029 -3.86914,-1.38086 -0.98438,-0.92968 -1.47657,-2.13281 -1.47656,-3.60937 -1e-5,-1.79557 0.61523,-3.11263 1.8457,-3.95118 1.23958,-0.83853 3.18098,-1.2578 5.82422,-1.25781 l 2.88476,0 0,-0.38281 c -1e-5,-0.77473 -0.30535,-1.33983 -0.91601,-1.69531 -0.61069,-0.36457 -1.56316,-0.54687 -2.85742,-0.54688 -1.04819,1e-5 -2.02345,0.10483 -2.92579,0.31445 -0.90234,0.20965 -1.74088,0.5241 -2.51562,0.94336 l 0,-3.73242 c 1.04817,-0.25519 2.10091,-0.4466 3.1582,-0.57422 1.05729,-0.1367 2.11458,-0.20506 3.17188,-0.20507 2.7617,1e-5 4.75324,0.54689 5.97461,1.64062 1.23045,1.08465 1.84568,2.85288 1.8457,5.30469"
         id="path3241"
         style="font-size:28px;font-weight:bold;-inkscape-font-specification:Bitstream Charter Bold" />
      <path
         d="m 187.00407,248.19492 4.89454,0 3.81445,10.58203 3.80078,-10.58203 4.9082,0 -6.02929,15.3125 -5.37305,0 -6.01563,-15.3125"
         id="path3243"
         style="font-size:28px;font-weight:bold;-inkscape-font-specification:Bitstream Charter Bold" />
      <path
         d="m 214.06071,256.61679 c -1.02084,1e-5 -1.79102,0.17318 -2.31054,0.51953 -0.51043,0.34636 -0.76563,0.85678 -0.76563,1.53125 0,0.6198 0.20507,1.10743 0.61524,1.46289 0.41926,0.34636 0.99804,0.51954 1.73633,0.51953 0.92056,10e-6 1.6953,-0.32812 2.32421,-0.98437 0.6289,-0.66536 0.94335,-1.49479 0.94336,-2.48828 l 0,-0.56055 -2.54297,0 m 7.47852,-1.8457 0,8.73633 -4.93555,0 0,-2.26954 c -0.65626,0.92969 -1.39454,1.60873 -2.21484,2.03711 -0.82032,0.41927 -1.81837,0.62891 -2.99414,0.62891 -1.58594,0 -2.87566,-0.46029 -3.86914,-1.38086 -0.98438,-0.92968 -1.47657,-2.13281 -1.47656,-3.60937 -1e-5,-1.79557 0.61523,-3.11263 1.8457,-3.95118 1.23958,-0.83853 3.18098,-1.2578 5.82422,-1.25781 l 2.88476,0 0,-0.38281 c -1e-5,-0.77473 -0.30535,-1.33983 -0.91601,-1.69531 -0.61069,-0.36457 -1.56316,-0.54687 -2.85742,-0.54688 -1.04819,1e-5 -2.02345,0.10483 -2.92579,0.31445 -0.90234,0.20965 -1.74088,0.5241 -2.51562,0.94336 l 0,-3.73242 c 1.04817,-0.25519 2.10091,-0.4466 3.1582,-0.57422 1.05729,-0.1367 2.11458,-0.20506 3.17188,-0.20507 2.7617,1e-5 4.75324,0.54689 5.97461,1.64062 1.23045,1.08465 1.84568,2.85288 1.8457,5.30469"
         id="path3245"
         style="font-size:28px;font-weight:bold;-inkscape-font-specification:Bitstream Charter Bold" />
      <path
         d="m 238.0822,248.67343 0,3.71875 c -1.04819,-0.43749 -2.05991,-0.76561 -3.03516,-0.98437 -0.97527,-0.21874 -1.89584,-0.32812 -2.76172,-0.32813 -0.92969,1e-5 -1.6224,0.1185 -2.07812,0.35547 -0.44662,0.22788 -0.66993,0.58334 -0.66992,1.06641 -1e-5,0.39193 0.16861,0.69272 0.50586,0.90234 0.34634,0.20965 0.96158,0.36459 1.8457,0.46484 l 0.86133,0.12305 c 2.5065,0.31902 4.19269,0.84311 5.05859,1.57227 0.86587,0.72917 1.29881,1.87305 1.29883,3.43164 -2e-5,1.63151 -0.60158,2.85742 -1.80469,3.67773 -1.20314,0.82031 -2.99871,1.23047 -5.38672,1.23047 -1.01172,0 -2.0599,-0.082 -3.14453,-0.24609 -1.07552,-0.15495 -2.18294,-0.39193 -3.32226,-0.71094 l 0,-3.71875 c 0.97525,0.47396 1.9733,0.82943 2.99414,1.06641 1.02994,0.23698 2.07356,0.35547 3.13086,0.35546 0.95702,10e-6 1.67707,-0.13215 2.16015,-0.39648 0.48307,-0.26432 0.7246,-0.65625 0.72461,-1.17578 -1e-5,-0.4375 -0.16863,-0.76106 -0.50586,-0.9707 -0.32813,-0.21875 -0.98894,-0.38737 -1.98242,-0.50586 l -0.86133,-0.10938 c -2.17839,-0.27343 -3.70508,-0.77929 -4.58008,-1.51758 -0.875,-0.73827 -1.3125,-1.85936 -1.3125,-3.36328 0,-1.62238 0.55599,-2.82551 1.66797,-3.60937 1.11198,-0.78384 2.8164,-1.17577 5.11328,-1.17578 0.90234,1e-5 1.85026,0.0684 2.84375,0.20507 0.99348,0.13674 2.07356,0.35093 3.24024,0.64258"
         id="path3247"
         style="font-size:28px;font-weight:bold;-inkscape-font-specification:Bitstream Charter Bold" />
      <path
         d="m 255.17204,248.67343 0,3.99219 c -0.66538,-0.45572 -1.3353,-0.79296 -2.00976,-1.01172 -0.66538,-0.21874 -1.35809,-0.32811 -2.07813,-0.32812 -1.36719,1e-5 -2.4336,0.40105 -3.19922,1.20312 -0.75651,0.79298 -1.13477,1.90496 -1.13476,3.33594 -1e-5,1.43099 0.37825,2.54753 1.13476,3.34961 0.76562,0.79297 1.83203,1.18945 3.19922,1.18945 0.76562,0 1.49022,-0.11393 2.17383,-0.3418 0.6927,-0.22786 1.33072,-0.5651 1.91406,-1.01172 l 0,4.00586 c -0.76564,0.28256 -1.54493,0.49219 -2.33789,0.62891 -0.78386,0.14583 -1.57227,0.21875 -2.36523,0.21875 -2.76173,0 -4.92188,-0.70638 -6.48047,-2.11914 -1.5586,-1.42187 -2.33789,-3.39518 -2.33789,-5.91992 0,-2.52473 0.77929,-4.49348 2.33789,-5.90625 1.55859,-1.42186 3.71874,-2.1328 6.48047,-2.13281 0.80207,1e-5 1.59048,0.0729 2.36523,0.21875 0.78384,0.13673 1.56314,0.34636 2.33789,0.6289"
         id="path3249"
         style="font-size:28px;font-weight:bold;-inkscape-font-specification:Bitstream Charter Bold" />
      <path
         d="m 270.799,252.36484 c -0.4284,-0.20051 -0.85679,-0.34635 -1.28516,-0.4375 -0.41928,-0.10025 -0.84311,-0.15038 -1.27148,-0.15039 -1.25783,1e-5 -2.22853,0.40561 -2.91211,1.21679 -0.67449,0.8021 -1.01173,1.95509 -1.01172,3.45899 l 0,7.05469 -4.89453,0 0,-15.3125 4.89453,0 0,2.51562 c 0.6289,-1.00259 1.34895,-1.73176 2.16015,-2.1875 0.82031,-0.46483 1.80012,-0.69725 2.93946,-0.69726 0.16405,1e-5 0.34178,0.009 0.5332,0.0273 0.19139,0.009 0.46939,0.0365 0.83398,0.082 l 0.0137,4.42969"
         id="path3251"
         style="font-size:28px;font-weight:bold;-inkscape-font-specification:Bitstream Charter Bold" />
      <path
         d="m 273.25993,248.19492 4.89453,0 0,15.3125 -4.89453,0 0,-15.3125 m 0,-5.96094 4.89453,0 0,3.99219 -4.89453,0 0,-3.99219"
         id="path3253"
         style="font-size:28px;font-weight:bold;-inkscape-font-specification:Bitstream Charter Bold" />
      <path
         d="m 287.77946,261.29257 0,8.03906 -4.89453,0 0,-21.13671 4.89453,0 0,2.24218 c 0.67448,-0.89321 1.42187,-1.54946 2.24219,-1.96875 0.8203,-0.42837 1.76366,-0.64256 2.83008,-0.64257 1.8867,1e-5 3.43618,0.75196 4.64844,2.25585 1.21222,1.49481 1.81834,3.42254 1.81836,5.78321 -2e-5,2.36068 -0.60614,4.29297 -1.81836,5.79687 -1.21226,1.49479 -2.76174,2.24219 -4.64844,2.24219 -1.06642,0 -2.00978,-0.20964 -2.83008,-0.62891 -0.82032,-0.42838 -1.56771,-1.08919 -2.24219,-1.98242 m 3.25391,-9.91211 c -1.04819,1e-5 -1.85483,0.38738 -2.41992,1.16211 -0.556,0.76564 -0.83399,1.87306 -0.83399,3.32227 0,1.44922 0.27799,2.5612 0.83399,3.33594 0.56509,0.76562 1.37173,1.14844 2.41992,1.14843 1.04817,10e-6 1.84569,-0.38281 2.39258,-1.14843 0.55598,-0.76562 0.83397,-1.8776 0.83398,-3.33594 -10e-6,-1.45833 -0.278,-2.5703 -0.83398,-3.33594 -0.54689,-0.76561 -1.34441,-1.14843 -2.39258,-1.14844"
         id="path3255"
         style="font-size:28px;font-weight:bold;-inkscape-font-specification:Bitstream Charter Bold" />
      <path
         d="m 308.30095,243.84726 0,4.34766 5.04492,0 0,3.5 -5.04492,0 0,6.49414 c -10e-6,0.71094 0.14127,1.19401 0.42383,1.44922 0.28254,0.24609 0.84309,0.36914 1.68164,0.36914 l 2.51562,0 0,3.5 -4.19726,0 c -1.9323,0 -3.30404,-0.40105 -4.11524,-1.20313 -0.80208,-0.8112 -1.20312,-2.18294 -1.20312,-4.11523 l 0,-6.49414 -2.4336,0 0,-3.5 2.4336,0 0,-4.34766 4.89453,0"
         id="path3257"
         style="font-size:28px;font-weight:bold;-inkscape-font-specification:Bitstream Charter Bold" />
      <path
         d="m 184.31071,278.09531 14.20508,0 0,3.97851 -8.9414,0 0,3.80078 8.4082,0 0,3.97852 -8.4082,0 0,4.67578 9.24218,0 0,3.97852 -14.50586,0 0,-20.41211"
         id="path3259"
         style="font-size:28px;font-weight:bold;-inkscape-font-specification:Bitstream Charter Bold" />
      <path
         d="m 218.62712,289.1832 0,9.32422 -4.92187,0 0,-1.51758 0,-5.61914 c -2e-5,-1.32161 -0.0319,-2.23307 -0.0957,-2.73438 -0.0547,-0.50129 -0.15496,-0.87043 -0.30078,-1.10742 -0.19142,-0.319 -0.45118,-0.56509 -0.7793,-0.73828 -0.32813,-0.18228 -0.70183,-0.27343 -1.12109,-0.27344 -1.02084,1e-5 -1.82292,0.3965 -2.40625,1.18945 -0.58334,0.78387 -0.87501,1.87306 -0.875,3.26758 l 0,7.53321 -4.89453,0 0,-15.3125 4.89453,0 0,2.24218 c 0.73827,-0.89321 1.52213,-1.54946 2.35156,-1.96875 0.82942,-0.42837 1.74543,-0.64256 2.74805,-0.64257 1.76822,10e-6 3.10806,0.54233 4.01953,1.62695 0.92056,1.08465 1.38084,2.66147 1.38086,4.73047"
         id="path3261"
         style="font-size:28px;font-weight:bold;-inkscape-font-specification:Bitstream Charter Bold" />
      <path
         d="m 233.6115,295.90976 c -0.6745,0.89323 -1.41733,1.54948 -2.22852,1.96875 -0.81121,0.41927 -1.75001,0.62891 -2.81641,0.62891 -1.86849,0 -3.41341,-0.73373 -4.63476,-2.20118 -1.22136,-1.47655 -1.83203,-3.35416 -1.83203,-5.63281 0,-2.28775 0.61067,-4.16079 1.83203,-5.61914 1.22135,-1.46743 2.76627,-2.20116 4.63476,-2.20117 1.0664,1e-5 2.0052,0.20965 2.81641,0.62891 0.81119,0.41928 1.55402,1.08009 2.22852,1.98242 l 0,-2.26953 4.92187,0 0,13.76757 c -2e-5,2.46094 -0.77931,4.33854 -2.33789,5.63282 -1.54949,1.30338 -3.80079,1.95507 -6.75391,1.95507 -0.95703,0 -1.88216,-0.0729 -2.77539,-0.21875 -0.89323,-0.14583 -1.79102,-0.36914 -2.69336,-0.66992 l 0,-3.81445 c 0.85677,0.49219 1.69531,0.85677 2.51563,1.09375 0.82031,0.24609 1.64517,0.36914 2.47461,0.36914 1.60416,0 2.77994,-0.35091 3.52734,-1.05273 0.74739,-0.70183 1.12108,-1.80013 1.1211,-3.29493 l 0,-1.05273 m -3.22657,-9.5293 c -1.01172,10e-6 -1.80013,0.37371 -2.36523,1.1211 -0.56511,0.7474 -0.84766,1.80469 -0.84766,3.17187 0,1.40365 0.27343,2.47006 0.82032,3.19922 0.54686,0.72006 1.34439,1.08008 2.39257,1.08008 1.02083,0 1.81379,-0.3737 2.37891,-1.1211 0.56509,-0.74739 0.84764,-1.80012 0.84766,-3.1582 -2e-5,-1.36718 -0.28257,-2.42447 -0.84766,-3.17187 -0.56512,-0.74739 -1.35808,-1.12109 -2.37891,-1.1211"
         id="path3263"
         style="font-size:28px;font-weight:bold;-inkscape-font-specification:Bitstream Charter Bold" />
      <path
         d="m 243.26384,283.19492 4.89453,0 0,15.3125 -4.89453,0 0,-15.3125 m 0,-5.96094 4.89453,0 0,3.99219 -4.89453,0 0,-3.99219"
         id="path3265"
         style="font-size:28px;font-weight:bold;-inkscape-font-specification:Bitstream Charter Bold" />
      <path
         d="m 268.28337,289.1832 0,9.32422 -4.92187,0 0,-1.51758 0,-5.61914 c -2e-5,-1.32161 -0.0319,-2.23307 -0.0957,-2.73438 -0.0547,-0.50129 -0.15496,-0.87043 -0.30078,-1.10742 -0.19142,-0.319 -0.45118,-0.56509 -0.7793,-0.73828 -0.32813,-0.18228 -0.70183,-0.27343 -1.12109,-0.27344 -1.02084,1e-5 -1.82292,0.3965 -2.40625,1.18945 -0.58334,0.78387 -0.87501,1.87306 -0.875,3.26758 l 0,7.53321 -4.89453,0 0,-15.3125 4.89453,0 0,2.24218 c 0.73827,-0.89321 1.52213,-1.54946 2.35156,-1.96875 0.82942,-0.42837 1.74543,-0.64256 2.74805,-0.64257 1.76822,10e-6 3.10806,0.54233 4.01953,1.62695 0.92056,1.08465 1.38084,2.66147 1.38086,4.73047"
         id="path3267"
         style="font-size:28px;font-weight:bold;-inkscape-font-specification:Bitstream Charter Bold" />
      <path
         d="m 288.13493,290.81015 0,1.39453 -11.44336,0 c 0.11849,1.14844 0.5332,2.00977 1.24414,2.58399 0.71093,0.57422 1.70442,0.86133 2.98047,0.86132 1.02994,10e-6 2.08267,-0.15038 3.15821,-0.45117 1.08462,-0.30989 2.1966,-0.77473 3.33593,-1.39453 l 0,3.77344 c -1.15756,0.4375 -2.31511,0.76562 -3.47265,0.98437 -1.15757,0.22787 -2.31512,0.3418 -3.47266,0.3418 -2.77084,0 -4.92644,-0.70182 -6.4668,-2.10547 -1.53125,-1.41276 -2.29687,-3.39062 -2.29687,-5.93359 0,-2.49739 0.75195,-4.46158 2.25586,-5.89258 1.51301,-1.43098 3.59114,-2.14647 6.23437,-2.14648 2.40624,10e-6 4.32942,0.72462 5.76954,2.17382 1.4492,1.44923 2.17381,3.38608 2.17382,5.81055 m -5.03125,-1.62695 c -10e-6,-0.92968 -0.27345,-1.67708 -0.82031,-2.24219 -0.53777,-0.57421 -1.24415,-0.86132 -2.11914,-0.86133 -0.94793,1e-5 -1.71811,0.26889 -2.31055,0.80664 -0.59245,0.52866 -0.96159,1.29428 -1.10742,2.29688 l 6.35742,0"
         id="path3269"
         style="font-size:28px;font-weight:bold;-inkscape-font-specification:Bitstream Charter Bold" />
    </g>
    <rect
       width="65.587074"
       height="88.102036"
       x="11.257483"
       y="11.185344"
       transform="translate(65.276991,217.87503)"
       id="rect3027"
       style="fill:none;stroke:#000000;stroke-width:1;stroke-miterlimit:4;stroke-opacity:1;stroke-dasharray:none" />
    <path
       d="m 84.855221,240.80731 39.645919,0"
       id="path3029"
       style="fill:none;stroke:#000000;stroke-width:2.5;stroke-linecap:butt;stroke-linejoin:miter;stroke-miterlimit:4;stroke-opacity:1;stroke-dasharray:none" />
    <path
       d="m 84.855221,251.57533 37.688089,0"
       id="path3031"
       style="fill:none;stroke:#000000;stroke-width:2.5;stroke-linecap:butt;stroke-linejoin:miter;stroke-miterlimit:4;stroke-opacity:1;stroke-dasharray:none" />
    <path
       d="m 84.855221,262.34336 46.008839,0"
       id="path3033"
       style="fill:none;stroke:#000000;stroke-width:2.5;stroke-linecap:butt;stroke-linejoin:miter;stroke-miterlimit:4;stroke-opacity:1;stroke-dasharray:none" />
    <path
       d="m 84.855221,273.11139 18.599319,0"
       id="path3035"
       style="fill:none;stroke:#000000;stroke-width:2.5;stroke-linecap:butt;stroke-linejoin:miter;stroke-miterlimit:4;stroke-opacity:1;stroke-dasharray:none" />
    <path
       d="m 84.855221,283.87942 47.966659,0"
       id="path3037"
       style="fill:none;stroke:#000000;stroke-width:2.5;stroke-linecap:butt;stroke-linejoin:miter;stroke-miterlimit:4;stroke-opacity:1;stroke-dasharray:none" />
    <path
       d="m 84.855221,294.64744 30.346249,0"
       id="path3039"
       style="fill:none;stroke:#000000;stroke-width:2.5;stroke-linecap:butt;stroke-linejoin:miter;stroke-miterlimit:4;stroke-opacity:1;stroke-dasharray:none" />
    <path
       d="m 84.855221,305.41547 40.624829,0"
       id="path3041"
       style="fill:none;stroke:#000000;stroke-width:2.5;stroke-linecap:butt;stroke-linejoin:miter;stroke-miterlimit:4;stroke-opacity:1;stroke-dasharray:none" />
  </g>
</svg>
