<?xml version="1.0" encoding="UTF-8" standalone="no"?>
<!-- Created with Inkscape (http://www.inkscape.org/) -->

<svg
   xmlns:svg="http://www.w3.org/2000/svg"
   xmlns="http://www.w3.org/2000/svg"
   version="1.2"
   width="239.74606"
   height="111.03433"
   id="svg2890">
  <defs
     id="defs2892" />
  <g
     transform="translate(-65.276992,-217.87502)"
     id="layer1">
    <rect
       width="238.74971"
       height="110.03798"
       x="65.775169"
       y="218.3732"
       id="rect3694"
       style="fill:#ffffff;fill-opacity:1;stroke:#000000;stroke-width:0.99635434;stroke-opacity:1" />
    <path
       d="m 105.38852,86.804382 a 37.874001,37.874001 0 1 1 -75.748002,0 37.874001,37.874001 0 1 1 75.748002,0 z"
       transform="translate(51.162458,185.88208)"
       id="path3164"
       style="fill:#a9d3ff;fill-opacity:1;stroke:#000000;stroke-width:2;stroke-miterlimit:4;stroke-opacity:1;stroke-dasharray:none" />
    <path
       d="m 117.97125,235.28295 0,12.23259"
       id="path3938"
       style="fill:none;stroke:#000000;stroke-width:3;stroke-linecap:butt;stroke-linejoin:miter;stroke-miterlimit:4;stroke-opacity:1;stroke-dasharray:none" />
    <path
       d="m 118.44174,297.85738 0,12.23259"
       id="path3938-4"
       style="fill:none;stroke:#000000;stroke-width:3;stroke-linecap:butt;stroke-linejoin:miter;stroke-miterlimit:4;stroke-opacity:1;stroke-dasharray:none" />
    <path
       d="m 93.506056,272.45121 -12.23259,0"
       id="path3938-4-9"
       style="fill:none;stroke:#000000;stroke-width:3;stroke-linecap:butt;stroke-linejoin:miter;stroke-miterlimit:4;stroke-opacity:1;stroke-dasharray:none" />
    <path
       d="m 155.61001,272.45122 -12.23259,0"
       id="path3938-4-9-4"
       style="fill:none;stroke:#000000;stroke-width:3;stroke-linecap:butt;stroke-linejoin:miter;stroke-miterlimit:4;stroke-opacity:1;stroke-dasharray:none" />
    <path
       d="m 144.68057,245.87071 -5.91579,5.91579"
       id="path3938-43"
       style="fill:none;stroke:#000000;stroke-width:1.5;stroke-linecap:butt;stroke-linejoin:miter;stroke-miterlimit:4;stroke-opacity:1;stroke-dasharray:none" />
    <path
       d="m 99.006,294.2841 -5.91579,5.91579"
       id="path3938-43-8"
       style="fill:none;stroke:#000000;stroke-width:1.5;stroke-linecap:butt;stroke-linejoin:miter;stroke-miterlimit:4;stroke-opacity:1;stroke-dasharray:none" />
    <path
       d="m 98.109756,252.4001 -5.91579,-5.91579"
       id="path3938-43-8-3"
       style="fill:none;stroke:#000000;stroke-width:1.5;stroke-linecap:butt;stroke-linejoin:miter;stroke-miterlimit:4;stroke-opacity:1;stroke-dasharray:none" />
    <path
       d="m 143.51956,299.90113 -5.9158,-5.91579"
       id="path3938-43-8-3-5"
       style="fill:none;stroke:#000000;stroke-width:1.5;stroke-linecap:butt;stroke-linejoin:miter;stroke-miterlimit:4;stroke-opacity:1;stroke-dasharray:none" />
    <path
       d="m 105.87637,244.33683 -2.3291,-5.62295"
       id="path3938-43-8-3-6"
       style="fill:none;stroke:#000000;stroke-width:1;stroke-linecap:butt;stroke-linejoin:miter;stroke-miterlimit:4;stroke-opacity:1;stroke-dasharray:none" />
    <path
       d="m 132.16625,306.92468 -2.3291,-5.62295"
       id="path3938-43-8-3-6-9"
       style="fill:none;stroke:#000000;stroke-width:1;stroke-linecap:butt;stroke-linejoin:miter;stroke-miterlimit:4;stroke-opacity:1;stroke-dasharray:none" />
    <path
       d="m 103.54727,306.62593 2.3291,-5.62295"
       id="path3938-43-8-3-6-9-7"
       style="fill:none;stroke:#000000;stroke-width:1;stroke-linecap:butt;stroke-linejoin:miter;stroke-miterlimit:4;stroke-opacity:1;stroke-dasharray:none" />
    <path
       d="m 131.03215,243.88872 2.3291,-5.62295"
       id="path3938-43-8-3-6-9-7-0"
       style="fill:none;stroke:#000000;stroke-width:1;stroke-linecap:butt;stroke-linejoin:miter;stroke-miterlimit:4;stroke-opacity:1;stroke-dasharray:none" />
    <path
       d="m 84.274172,288.54784 5.622948,-2.32911"
       id="path3938-43-8-3-6-9-7-0-8"
       style="fill:none;stroke:#000000;stroke-width:1;stroke-linecap:butt;stroke-linejoin:miter;stroke-miterlimit:4;stroke-opacity:1;stroke-dasharray:none" />
    <path
       d="m 146.4139,259.27047 5.62295,-2.32911"
       id="path3938-43-8-3-6-9-7-0-8-9"
       style="fill:none;stroke:#000000;stroke-width:1;stroke-linecap:butt;stroke-linejoin:miter;stroke-miterlimit:4;stroke-opacity:1;stroke-dasharray:none" />
    <path
       d="m 84.572917,256.04512 5.622956,2.32909"
       id="path3938-43-8-3-6-9-7-0-8-9-0"
       style="fill:none;stroke:#000000;stroke-width:1;stroke-linecap:butt;stroke-linejoin:miter;stroke-miterlimit:4;stroke-opacity:1;stroke-dasharray:none" />
    <path
       d="m 146.71264,285.91999 5.62296,2.32909"
       id="path3938-43-8-3-6-9-7-0-8-9-0-5"
       style="fill:none;stroke:#000000;stroke-width:1;stroke-linecap:butt;stroke-linejoin:miter;stroke-miterlimit:4;stroke-opacity:1;stroke-dasharray:none" />
    <g
       id="text4283"
       style="font-size:36px;font-style:normal;font-variant:normal;font-weight:normal;font-stretch:normal;text-align:start;line-height:125%;writing-mode:lr-tb;text-anchor:start;fill:#000000;fill-opacity:1;stroke:none;font-family:DejaVu Sans;-inkscape-font-specification:DejaVu Sans">
      <path
         d="m 168.52596,260.41016 24.85937,0 0,5.25732 -8.94287,0 0,21.71582 -6.95557,0 0,-21.71582 -8.96093,0 0,-5.25732"
         id="path4288"
         style="font-size:37px;font-weight:bold;-inkscape-font-specification:Bitstream Charter Bold" />
      <path
         d="m 196.67342,267.14893 6.46777,0 0,20.23437 -6.46777,0 0,-20.23437 m 0,-7.87696 6.46777,0 0,5.27539 -6.46777,0 0,-5.27539"
         id="path4290"
         style="font-size:37px;font-weight:bold;-inkscape-font-specification:Bitstream Charter Bold" />
      <path
         d="m 228.1451,270.50928 c 0.81898,-1.25259 1.78855,-2.20409 2.90869,-2.85449 1.13213,-0.66242 2.37269,-0.99364 3.72168,-0.99366 2.32451,2e-5 4.09502,0.71666 5.31152,2.14991 1.21644,1.43328 1.82467,3.51694 1.82471,6.25097 l 0,12.32129 -6.50391,0 0,-10.55078 c 0.012,-0.15657 0.018,-0.31916 0.0181,-0.48779 0.012,-0.16861 0.018,-0.4095 0.0181,-0.72266 -3e-5,-1.43325 -0.2108,-2.46906 -0.63232,-3.10742 -0.42158,-0.65038 -1.10208,-0.97557 -2.0415,-0.97559 -1.22855,2e-5 -2.18004,0.50588 -2.8545,1.51758 -0.66245,1.01173 -1.00572,2.47511 -1.02978,4.39014 l 0,9.93652 -6.50391,0 0,-10.55078 c -1e-5,-2.24022 -0.19272,-3.67951 -0.57812,-4.31787 -0.38543,-0.65038 -1.07196,-0.97557 -2.05957,-0.97559 -1.24058,2e-5 -2.19809,0.5119 -2.87256,1.53565 -0.67449,1.01173 -1.01173,2.46306 -1.01172,4.354 l 0,9.95459 -6.50391,0 0,-20.23437 6.50391,0 0,2.96289 c 0.79491,-1.14419 1.70425,-2.00536 2.72803,-2.5835 1.03579,-0.5781 2.17397,-0.86717 3.41455,-0.86719 1.39712,2e-5 2.63165,0.33726 3.70361,1.01172 1.07192,0.6745 1.88491,1.61997 2.43897,2.83643"
         id="path4292"
         style="font-size:37px;font-weight:bold;-inkscape-font-specification:Bitstream Charter Bold" />
      <path
         d="m 268.18025,277.21191 0,1.84278 -15.12158,0 c 0.15657,1.51758 0.70458,2.65576 1.64404,3.41455 0.93945,0.75879 2.25227,1.13819 3.93848,1.13818 1.36099,1e-5 2.7521,-0.19872 4.17334,-0.59619 1.43325,-0.4095 2.90265,-1.02376 4.4082,-1.84277 l 0,4.98633 c -1.52964,0.57812 -3.05926,1.01171 -4.58886,1.30078 -1.52964,0.3011 -3.05926,0.45166 -4.58887,0.45166 -3.66147,0 -6.50994,-0.92741 -8.54541,-2.78223 -2.02344,-1.86686 -3.03516,-4.48046 -3.03516,-7.84082 0,-3.30012 0.99365,-5.89565 2.98096,-7.78662 1.99934,-1.89093 4.74543,-2.83641 8.23828,-2.83643 3.17967,2e-5 5.72101,0.95754 7.62402,2.87256 1.91502,1.91506 2.87254,4.47446 2.87256,7.67822 m -6.64844,-2.1499 c -1e-5,-1.2285 -0.36134,-2.21613 -1.08398,-2.96289 -0.71063,-0.75877 -1.64406,-1.13817 -2.80029,-1.13818 -1.25262,1e-5 -2.27036,0.35532 -3.05323,1.06592 -0.78288,0.69858 -1.27067,1.7103 -1.46337,3.03515 l 8.40087,0"
         id="path4294"
         style="font-size:37px;font-weight:bold;-inkscape-font-specification:Bitstream Charter Bold" />
      <path
         d="m 288.08943,272.65918 c -0.5661,-0.26496 -1.13218,-0.45767 -1.69824,-0.57813 -0.55405,-0.13247 -1.11411,-0.19871 -1.68018,-0.19873 -1.66212,2e-5 -2.94483,0.53599 -3.84814,1.60791 -0.89129,1.05991 -1.33692,2.58351 -1.33691,4.57081 l 0,9.32226 -6.46778,0 0,-20.23437 6.46778,0 0,3.32421 c 0.83104,-1.32485 1.78254,-2.28839 2.85449,-2.89062 1.08397,-0.61424 2.37873,-0.92137 3.88427,-0.92139 0.21679,2e-5 0.45165,0.0121 0.70459,0.0361 0.25292,0.0121 0.62027,0.0482 1.10206,0.10839 l 0.0181,5.85352"
         id="path4296"
         style="font-size:37px;font-weight:bold;-inkscape-font-specification:Bitstream Charter Bold" />
    </g>
  </g>
</svg>
