<?xml version="1.0" encoding="UTF-8" standalone="no"?>
<!-- Created with Inkscape (http://www.inkscape.org/) -->

<svg
   xmlns:svg="http://www.w3.org/2000/svg"
   xmlns="http://www.w3.org/2000/svg"
   version="1.2"
   width="239.74606"
   height="111.03433"
   id="svg2890">
  <defs
     id="defs2892" />
  <g
     transform="translate(-65.276992,-217.87502)"
     id="layer1">
    <rect
       width="238.74971"
       height="110.03798"
       x="65.775169"
       y="218.3732"
       id="rect3694"
       style="fill:#ffffff;fill-opacity:1;stroke:#000000;stroke-width:0.99635434;stroke-opacity:1" />
    <g
       id="text2900"
       style="font-size:10px;font-style:normal;font-variant:normal;font-weight:normal;font-stretch:normal;text-align:center;line-height:125%;writing-mode:lr-tb;text-anchor:middle;fill:#000000;fill-opacity:1;stroke:none;font-family:DejaVu Sans;-inkscape-font-specification:DejaVu Sans">
      <path
         d="m 157.13393,260.04053 -11.13282,-29.16016 4.1211,0 9.23828,24.55078 9.25781,-24.55078 4.10156,0 -11.11328,29.16016 -4.47265,0"
         id="path3747"
         style="font-size:40px" />
      <path
         d="m 192.38783,248.20459 0,1.75781 -16.52343,0 c 0.15624,2.47397 0.89843,4.36199 2.22656,5.66406 1.34113,1.28907 3.20311,1.9336 5.58594,1.9336 1.38019,0 2.71482,-0.16927 4.0039,-0.50781 1.30207,-0.33854 2.59113,-0.84635 3.86719,-1.52344 l 0,3.39844 c -1.28908,0.54687 -2.6107,0.96354 -3.96484,1.25 -1.35419,0.28645 -2.72788,0.42968 -4.1211,0.42968 -3.48959,0 -6.25652,-1.01562 -8.30078,-3.04687 -2.03125,-2.03125 -3.04688,-4.77864 -3.04687,-8.24219 -1e-5,-3.58071 0.96353,-6.41925 2.89062,-8.51562 1.9401,-2.10936 4.55077,-3.16404 7.83203,-3.16407 2.94269,3e-5 5.26691,0.95055 6.97266,2.85157 1.71873,1.88803 2.5781,4.45965 2.57812,7.71484 m -3.59375,-1.05469 c -0.0261,-1.96613 -0.57944,-3.53514 -1.66015,-4.70703 -1.06773,-1.17186 -2.487,-1.75779 -4.25782,-1.75781 -2.00522,2e-5 -3.61329,0.56642 -4.82421,1.69922 -1.19793,1.13283 -1.88803,2.72788 -2.07032,4.78515 l 12.8125,-0.0195"
         id="path3749"
         style="font-size:40px" />
      <path
         d="m 210.96205,241.5249 c -0.40366,-0.23435 -0.84637,-0.40362 -1.32812,-0.50781 -0.46877,-0.11717 -0.9896,-0.17576 -1.5625,-0.17578 -2.03127,2e-5 -3.59376,0.66408 -4.6875,1.99219 -1.08074,1.31512 -1.6211,3.20965 -1.6211,5.68359 l 0,11.52344 -3.61328,0 0,-21.875 3.61328,0 0,3.39843 c 0.7552,-1.3281 1.73827,-2.31117 2.94922,-2.94921 1.21093,-0.65102 2.68228,-0.97654 4.41406,-0.97657 0.24738,3e-5 0.52082,0.0196 0.82032,0.0586 0.29946,0.0261 0.63149,0.0716 0.99609,0.13672 l 0.0195,3.6914"
         id="path3751"
         style="font-size:40px" />
      <path
         d="m 218.32533,231.95459 0,6.21094 7.40235,0 0,2.79297 -7.40235,0 0,11.875 c 0,1.78386 0.24088,2.92969 0.72266,3.4375 0.49478,0.50781 1.49087,0.76172 2.98828,0.76171 l 3.69141,0 0,3.00782 -3.69141,0 c -2.77345,0 -4.68751,-0.51433 -5.74219,-1.54297 -1.05469,-1.04167 -1.58203,-2.92968 -1.58203,-5.66406 l 0,-11.875 -2.63672,0 0,-2.79297 2.63672,0 0,-6.21094 3.61328,0"
         id="path3753"
         style="font-size:40px" />
      <path
         d="m 230.47377,238.16553 3.59375,0 0,21.875 -3.59375,0 0,-21.875 m 0,-8.51563 3.59375,0 0,4.55078 -3.59375,0 0,-4.55078"
         id="path3755"
         style="font-size:40px" />
      <path
         d="m 257.30971,239.00537 0,3.35938 c -1.01565,-0.55988 -2.03778,-0.97655 -3.06641,-1.25 -1.01564,-0.28644 -2.04428,-0.42967 -3.08594,-0.42969 -2.33074,2e-5 -4.14063,0.7422 -5.42968,2.22656 -1.28907,1.47137 -1.9336,3.54168 -1.9336,6.21094 0,2.66928 0.64453,4.7461 1.9336,6.23047 1.28905,1.47135 3.09894,2.20703 5.42968,2.20703 1.04166,0 2.0703,-0.13672 3.08594,-0.41016 1.02863,-0.28645 2.05076,-0.70963 3.06641,-1.26953 l 0,3.32031 c -1.00263,0.46875 -2.04429,0.82032 -3.125,1.05469 -1.06773,0.23438 -2.20705,0.35156 -3.41797,0.35156 -3.29428,0 -5.91147,-1.03515 -7.85156,-3.10547 -1.94011,-2.0703 -2.91016,-4.86327 -2.91016,-8.3789 0,-3.5677 0.97656,-6.37368 2.92969,-8.41797 1.96614,-2.04425 4.65494,-3.06638 8.0664,-3.06641 1.10676,3e-5 2.18749,0.11721 3.24219,0.35157 1.05467,0.22137 2.07681,0.55991 3.06641,1.01562"
         id="path3757"
         style="font-size:40px" />
      <path
         d="m 273.54018,249.04443 c -2.90366,1e-5 -4.91538,0.33205 -6.03516,0.9961 -1.1198,0.66407 -1.67969,1.79688 -1.67969,3.39843 0,1.27605 0.41666,2.29168 1.25,3.04688 0.84635,0.74219 1.99218,1.11328 3.4375,1.11328 1.99218,0 3.58723,-0.70312 4.78516,-2.10937 1.21092,-1.41927 1.81639,-3.30078 1.81641,-5.64454 l 0,-0.80078 -3.57422,0 m 7.16797,-1.48437 0,12.48047 -3.59375,0 0,-3.32032 c -0.82033,1.32813 -1.84247,2.3112 -3.06641,2.94922 -1.22397,0.625 -2.72137,0.9375 -4.49219,0.9375 -2.23959,0 -4.02344,-0.625 -5.35156,-1.875 -1.31511,-1.26301 -1.97266,-2.94921 -1.97266,-5.05859 0,-2.46093 0.82031,-4.3164 2.46094,-5.56641 1.65364,-1.24998 4.11457,-1.87498 7.38281,-1.875 l 5.03907,0 0,-0.35156 c -2e-5,-1.65363 -0.5469,-2.92967 -1.64063,-3.82812 -1.08074,-0.91144 -2.60418,-1.36717 -4.57031,-1.36719 -1.25001,2e-5 -2.46746,0.14976 -3.65235,0.44922 -1.1849,0.2995 -2.32422,0.74871 -3.41796,1.34765 l 0,-3.32031 c 1.31509,-0.50779 2.59113,-0.88539 3.82812,-1.13281 1.23697,-0.2604 2.4414,-0.3906 3.61328,-0.39063 3.16405,3e-5 5.52733,0.82034 7.08985,2.46094 1.56248,1.64064 2.34372,4.12762 2.34375,7.46094"
         id="path3759"
         style="font-size:40px" />
      <path
         d="m 288.13002,229.6499 3.59375,0 0,30.39063 -3.59375,0 0,-30.39063"
         id="path3761"
         style="font-size:40px" />
      <path
         d="m 156.4894,280.88037 3.94531,0 0,25.83984 14.19922,0 0,3.32032 -18.14453,0 0,-29.16016"
         id="path3763"
         style="font-size:40px" />
      <path
         d="m 188.54018,299.04443 c -2.90366,1e-5 -4.91538,0.33205 -6.03516,0.9961 -1.1198,0.66407 -1.67969,1.79688 -1.67969,3.39843 0,1.27605 0.41666,2.29168 1.25,3.04688 0.84635,0.74219 1.99218,1.11328 3.4375,1.11328 1.99218,0 3.58723,-0.70312 4.78516,-2.10937 1.21092,-1.41927 1.81639,-3.30078 1.81641,-5.64454 l 0,-0.80078 -3.57422,0 m 7.16797,-1.48437 0,12.48047 -3.59375,0 0,-3.32032 c -0.82033,1.32813 -1.84247,2.3112 -3.06641,2.94922 -1.22397,0.625 -2.72137,0.9375 -4.49219,0.9375 -2.23959,0 -4.02344,-0.625 -5.35156,-1.875 -1.31511,-1.26301 -1.97266,-2.94921 -1.97266,-5.05859 0,-2.46093 0.82031,-4.3164 2.46094,-5.56641 1.65364,-1.24998 4.11457,-1.87498 7.38281,-1.875 l 5.03907,0 0,-0.35156 c -2e-5,-1.65363 -0.5469,-2.92967 -1.64063,-3.82812 -1.08074,-0.91144 -2.60418,-1.36717 -4.57031,-1.36719 -1.25001,2e-5 -2.46746,0.14976 -3.65235,0.44922 -1.1849,0.2995 -2.32422,0.74871 -3.41796,1.34765 l 0,-3.32031 c 1.31509,-0.50779 2.59113,-0.88539 3.82812,-1.13281 1.23697,-0.2604 2.4414,-0.3906 3.61328,-0.39063 3.16405,3e-5 5.52733,0.82034 7.08985,2.46094 1.56248,1.64064 2.34372,4.12762 2.34375,7.46094"
         id="path3765"
         style="font-size:40px" />
      <path
         d="m 212.23158,312.07178 c -1.01563,2.60416 -2.00522,4.30338 -2.96875,5.09765 -0.96355,0.79427 -2.25261,1.1914 -3.86718,1.19141 l -2.8711,0 0,-3.00781 2.10938,0 c 0.98957,-10e-6 1.7578,-0.23438 2.30468,-0.70313 0.54687,-0.46875 1.15234,-1.57552 1.81641,-3.32031 l 0.64453,-1.64063 -8.84765,-21.52343 3.80859,0 6.83594,17.10937 6.83593,-17.10937 3.8086,0 -9.60938,23.90625"
         id="path3767"
         style="font-size:40px" />
      <path
         d="m 235.27846,290.68506 c -1.9271,2e-5 -3.45053,0.75523 -4.57031,2.26562 -1.1198,1.49742 -1.6797,3.5547 -1.67969,6.17188 -1e-5,2.61719 0.55338,4.68099 1.66015,6.1914 1.11979,1.4974 2.64973,2.2461 4.58985,2.2461 1.91405,0 3.43097,-0.75521 4.55078,-2.26563 1.11977,-1.51041 1.67967,-3.5677 1.67969,-6.17187 -2e-5,-2.59113 -0.55992,-4.64191 -1.67969,-6.15235 -1.11981,-1.52341 -2.63673,-2.28513 -4.55078,-2.28515 m 0,-3.04688 c 3.12498,3e-5 5.57941,1.01565 7.36328,3.04688 1.78383,2.03127 2.67576,4.84376 2.67578,8.4375 -2e-5,3.58074 -0.89195,6.39323 -2.67578,8.4375 -1.78387,2.03125 -4.2383,3.04687 -7.36328,3.04687 -3.13803,0 -5.59897,-1.01562 -7.38281,-3.04687 -1.77084,-2.04427 -2.65626,-4.85676 -2.65625,-8.4375 -1e-5,-3.59374 0.88541,-6.40623 2.65625,-8.4375 1.78384,-2.03123 4.24478,-3.04685 7.38281,-3.04688"
         id="path3769"
         style="font-size:40px" />
      <path
         d="m 250.88393,301.40771 0,-13.24218 3.59375,0 0,13.10547 c -1e-5,2.07032 0.40363,3.6263 1.21093,4.66796 0.80729,1.02865 2.01822,1.54298 3.63282,1.54297 1.94009,1e-5 3.47003,-0.61848 4.58984,-1.85547 1.1328,-1.23697 1.6992,-2.92316 1.69922,-5.05859 l 0,-12.40234 3.59375,0 0,21.875 -3.59375,0 0,-3.35938 c -0.87241,1.32813 -1.88804,2.31771 -3.04688,2.96875 -1.14584,0.63802 -2.48048,0.95703 -4.0039,0.95703 -2.51303,0 -4.42058,-0.78125 -5.72266,-2.34375 -1.30209,-1.56249 -1.95313,-3.84765 -1.95312,-6.85547 m 9.04297,-13.76953 0,0"
         id="path3771"
         style="font-size:40px" />
      <path
         d="m 280.20033,281.95459 0,6.21094 7.40235,0 0,2.79297 -7.40235,0 0,11.875 c 0,1.78386 0.24088,2.92969 0.72266,3.4375 0.49478,0.50781 1.49087,0.76172 2.98828,0.76171 l 3.69141,0 0,3.00782 -3.69141,0 c -2.77345,0 -4.68751,-0.51433 -5.74219,-1.54297 -1.05469,-1.04167 -1.58203,-2.92968 -1.58203,-5.66406 l 0,-11.875 -2.63672,0 0,-2.79297 2.63672,0 0,-6.21094 3.61328,0"
         id="path3773"
         style="font-size:40px" />
    </g>
    <rect
       width="33.53603"
       height="27.039539"
       x="78.446198"
       y="230.23218"
       id="rect3688"
       style="fill:#a9d3ff;fill-opacity:1;stroke:#000000;stroke-width:1.16452157;stroke-opacity:1" />
    <rect
       width="47.006153"
       height="31.983021"
       x="78.207626"
       y="258.00974"
       id="rect3690"
       style="fill:#708a99;fill-opacity:1;stroke:#000000;stroke-width:1.49944031;stroke-opacity:1" />
    <rect
       width="59.551582"
       height="26.663092"
       x="78.228394"
       y="290.92728"
       id="rect3692"
       style="fill:#7d8bf3;fill-opacity:1;stroke:#000000;stroke-width:1.54096925;stroke-opacity:1" />
  </g>
</svg>
