<?xml version="1.0" encoding="UTF-8" standalone="no"?>
<!-- Created with Inkscape (http://www.inkscape.org/) -->
<svg
   xmlns:svg="http://www.w3.org/2000/svg"
   xmlns="http://www.w3.org/2000/svg"
   version="1.0"
   width="444.85715"
   height="276.28571"
   id="svg2">
  <defs
     id="defs4" />
  <g
     transform="translate(-150.39146,-289.65146)"
     id="layer1">
    <rect
       width="442.85715"
       height="274.28571"
       ry="0"
       x="151.39146"
       y="290.65146"
       id="rect2383"
       style="fill:#ffffff;fill-opacity:1;fill-rule:evenodd;stroke:#000000;stroke-width:2;stroke-linecap:butt;stroke-linejoin:miter;stroke-miterlimit:4;stroke-dasharray:none;stroke-opacity:1" />
    <path
       d="M 255.58859,385.03406 L 265.13791,385.03406 L 271.81467,413.11267 L 278.43967,385.03406 L 288.04074,385.03406 L 294.66574,413.11267 L 301.3425,385.03406 L 310.81418,385.03406 L 301.7048,423.67126 L 290.21457,423.67126 L 283.20139,394.29871 L 276.26584,423.67126 L 264.7756,423.67126 L 255.58859,385.03406 M 316.94748,394.68689 L 326.21213,394.68689 L 326.21213,423.67126 L 316.94748,423.67126 L 316.94748,394.68689 M 316.94748,383.40369 L 326.21213,383.40369 L 326.21213,390.96033 L 316.94748,390.96033 L 316.94748,383.40369 M 364.30588,406.02185 L 364.30588,423.67126 L 354.98947,423.67126 L 354.98947,420.79871 L 354.98947,410.16248 C 354.98945,407.66086 354.92906,405.93561 354.80832,404.98669 C 354.70478,404.03782 354.515,403.33909 354.23898,402.8905 C 353.87666,402.28668 353.38496,401.82086 352.76389,401.49304 C 352.14277,401.14801 351.43541,400.97549 350.64182,400.97546 C 348.70951,400.97549 347.19128,401.72597 346.08713,403.22693 C 344.98295,404.71067 344.43086,406.77236 344.43088,409.41199 L 344.43088,423.67126 L 335.16623,423.67126 L 335.16623,394.68689 L 344.43088,394.68689 L 344.43088,398.93103 C 345.82832,397.2403 347.31205,395.99812 348.88205,395.20447 C 350.45202,394.39362 352.1859,393.98819 354.08371,393.98816 C 357.43069,393.98819 359.96682,395.01472 361.69211,397.06775 C 363.43459,399.12083 364.30584,402.10553 364.30588,406.02185 M 392.66916,398.93103 L 392.66916,383.40369 L 401.98557,383.40369 L 401.98557,423.67126 L 392.66916,423.67126 L 392.66916,419.47888 C 391.39244,421.18689 389.98636,422.4377 388.4509,423.23132 C 386.9154,424.02494 385.13838,424.42175 383.11984,424.42175 C 379.54854,424.42175 376.6156,423.00704 374.32101,420.17761 C 372.02641,417.33094 370.87912,413.67339 370.87912,409.20496 C 370.87912,404.73655 372.02641,401.08763 374.32101,398.25818 C 376.6156,395.41153 379.54854,393.98819 383.11984,393.98816 C 385.12113,393.98819 386.88952,394.39362 388.42502,395.20447 C 389.97773,395.99812 391.39244,397.2403 392.66916,398.93103 M 386.56174,417.69324 C 388.54577,417.69324 390.05537,416.96863 391.09055,415.51941 C 392.14293,414.0702 392.66913,411.96538 392.66916,409.20496 C 392.66913,406.44456 392.14293,404.33974 391.09055,402.8905 C 390.05537,401.44131 388.54577,400.7167 386.56174,400.71667 C 384.59492,400.7167 383.08532,401.44131 382.03293,402.8905 C 380.99776,404.33974 380.48018,406.44456 380.48019,409.20496 C 380.48018,411.96538 380.99776,414.0702 382.03293,415.51941 C 383.08532,416.96863 384.59492,417.69324 386.56174,417.69324 M 424.73312,400.61316 C 422.68005,400.61318 421.11006,401.35504 420.02316,402.83875 C 418.95349,404.30524 418.41866,406.4273 418.41867,409.20496 C 418.41866,411.98264 418.95349,414.11333 420.02316,415.59705 C 421.11006,417.06352 422.68005,417.79676 424.73312,417.79675 C 426.75166,417.79676 428.29576,417.06352 429.36545,415.59705 C 430.43509,414.11333 430.96992,411.98264 430.96994,409.20496 C 430.96992,406.4273 430.43509,404.30524 429.36545,402.83875 C 428.29576,401.35504 426.75166,400.61318 424.73312,400.61316 M 424.73312,393.98816 C 429.7191,393.98819 433.60956,395.33389 436.40451,398.02527 C 439.21665,400.7167 440.62274,404.44326 440.62277,409.20496 C 440.62274,413.96668 439.21665,417.69324 436.40451,420.38464 C 433.60956,423.07605 429.7191,424.42175 424.73312,424.42175 C 419.72986,424.42175 415.81352,423.07605 412.9841,420.38464 C 410.17192,417.69324 408.76584,413.96668 408.76584,409.20496 C 408.76584,404.44326 410.17192,400.7167 412.9841,398.02527 C 415.81352,395.33389 419.72986,393.98819 424.73312,393.98816 M 444.78928,394.68689 L 453.79514,394.68689 L 458.66037,414.66541 L 463.55148,394.68689 L 471.28928,394.68689 L 476.15451,414.45837 L 481.04562,394.68689 L 490.05148,394.68689 L 482.41721,423.67126 L 472.29855,423.67126 L 467.40744,403.74451 L 462.54221,423.67126 L 452.42355,423.67126 L 444.78928,394.68689"
       id="text3157"
       style="font-size:40px;font-style:normal;font-variant:normal;font-weight:normal;font-stretch:normal;text-align:center;text-anchor:middle;fill:#000000;fill-opacity:1;stroke:none;stroke-width:1px;stroke-linecap:butt;stroke-linejoin:miter;stroke-opacity:1;font-family:DejaVu Sans;-inkscape-font-specification:DejaVu Sans" />
    <path
       d="M 244.85962,483.63029 L 233.21881,471.98948 L 201.83922,503.36907 L 188.68004,490.20989 L 179.71875,536.36985 L 225.65713,528.55287 L 213.30321,516.19895 L 244.85962,483.63029 z"
       id="path3171"
       style="fill:#dde6fc;fill-opacity:1;fill-rule:evenodd;stroke:#000000;stroke-width:2;stroke-linecap:butt;stroke-linejoin:miter;stroke-miterlimit:4;stroke-dasharray:none;stroke-opacity:1" />
    <path
       d="M 495.88578,367.97796 L 507.52659,379.61877 L 538.90618,348.23918 L 552.06536,361.39836 L 561.02665,315.2384 L 515.08827,323.05538 L 527.44219,335.4093 L 495.88578,367.97796 z"
       id="path3179"
       style="fill:#dde6fc;fill-opacity:1;fill-rule:evenodd;stroke:#000000;stroke-width:2;stroke-linecap:butt;stroke-linejoin:miter;stroke-miterlimit:4;stroke-dasharray:none;stroke-opacity:1" />
    <path
       d="M 508.28709,471.22898 L 496.64627,482.8698 L 528.02586,514.24939 L 514.86668,527.40857 L 561.02665,536.36985 L 553.20967,490.43147 L 540.85575,502.78539 L 508.28709,471.22898 z"
       id="path3181"
       style="fill:#dde6fc;fill-opacity:1;fill-rule:evenodd;stroke:#000000;stroke-width:2;stroke-linecap:butt;stroke-linejoin:miter;stroke-miterlimit:4;stroke-dasharray:none;stroke-opacity:1" />
    <path
       d="M 232.45831,380.37927 L 244.09913,368.73845 L 212.71954,337.35886 L 225.87872,324.19968 L 179.71875,315.2384 L 187.53573,361.17678 L 199.88965,348.82286 L 232.45831,380.37927 z"
       id="path3183"
       style="fill:#dde6fc;fill-opacity:1;fill-rule:evenodd;stroke:#000000;stroke-width:2;stroke-linecap:butt;stroke-linejoin:miter;stroke-miterlimit:4;stroke-dasharray:none;stroke-opacity:1" />
    <path
       d="M 342.34763,443.06564 L 342.34763,451.24338 C 340.22553,450.29451 338.15522,449.57853 336.13669,449.09543 C 334.11811,448.61239 332.2117,448.37085 330.41745,448.37082 C 328.03657,448.37085 326.27681,448.69865 325.13815,449.35422 C 323.99947,450.00985 323.43013,451.02775 323.43015,452.40793 C 323.43013,453.44311 323.80969,454.25398 324.56882,454.84055 C 325.34517,455.40991 326.74263,455.90161 328.7612,456.31564 L 333.00534,457.16965 C 337.30121,458.0323 340.35492,459.3435 342.16647,461.10324 C 343.97796,462.86302 344.88372,465.36465 344.88376,468.60812 C 344.88372,472.86952 343.61566,476.044 341.07956,478.13156 C 338.56065,480.20187 334.7047,481.23703 329.51169,481.23703 C 327.0618,481.23703 324.60331,481.00412 322.1362,480.5383 C 319.66907,480.07248 317.20195,479.38238 314.73483,478.46799 L 314.73483,470.05734 C 317.20195,471.36855 319.58281,472.36057 321.87741,473.03342 C 324.18925,473.68902 326.41483,474.01682 328.55417,474.01682 C 330.72798,474.01682 332.39285,473.65452 333.5488,472.9299 C 334.7047,472.2053 335.28266,471.17014 335.28268,469.82443 C 335.28266,468.61676 334.88585,467.68512 334.09225,467.02951 C 333.31586,466.37393 331.75451,465.78734 329.40817,465.26974 L 325.55222,464.41574 C 321.68762,463.58763 318.8582,462.26781 317.06393,460.45627 C 315.28691,458.64477 314.3984,456.20353 314.39841,453.13254 C 314.3984,449.28524 315.64059,446.32642 318.12497,444.25607 C 320.60933,442.1858 324.18062,441.15064 328.83884,441.1506 C 330.96089,441.15064 333.14334,441.31454 335.3862,441.6423 C 337.62901,441.95289 339.94948,442.42734 342.34763,443.06564 M 353.24265,451.50217 L 362.50729,451.50217 L 362.50729,480.48654 L 353.24265,480.48654 L 353.24265,451.50217 M 353.24265,440.21896 L 362.50729,440.21896 L 362.50729,447.7756 L 353.24265,447.7756 L 353.24265,440.21896 M 370.03806,451.50217 L 395.32175,451.50217 L 395.32175,457.97189 L 380.05319,473.86154 L 395.32175,473.86154 L 395.32175,480.48654 L 369.39108,480.48654 L 369.39108,474.01682 L 384.65964,458.12717 L 370.03806,458.12717 L 370.03806,451.50217 M 431.24167,465.91672 L 431.24167,468.55637 L 409.58102,468.55637 C 409.8053,470.7302 410.59029,472.36057 411.936,473.44748 C 413.28169,474.5344 415.16222,475.07786 417.57761,475.07785 C 419.52713,475.07786 421.5198,474.79319 423.55563,474.22385 C 425.60867,473.63726 427.71348,472.75738 429.87009,471.5842 L 429.87009,478.72678 C 427.67898,479.5549 425.4879,480.176 423.29684,480.59006 C 421.10574,481.02137 418.91466,481.23703 416.7236,481.23703 C 411.4788,481.23703 407.39856,479.90858 404.48288,477.25168 C 401.58444,474.57753 400.13522,470.83372 400.13522,466.02023 C 400.13522,461.29304 401.55856,457.57511 404.40524,454.86642 C 407.26917,452.15779 411.20276,450.80347 416.20602,450.80344 C 420.76069,450.80347 424.40098,452.17505 427.12692,454.91818 C 429.87005,457.66137 431.24164,461.32754 431.24167,465.91672 M 421.71823,462.83713 C 421.71821,461.07738 421.20063,459.66267 420.1655,458.59299 C 419.14757,457.5061 417.8105,456.96264 416.15427,456.96262 C 414.35998,456.96264 412.90214,457.47159 411.78073,458.48947 C 410.6593,459.49014 409.96057,460.93936 409.68454,462.83713 L 421.71823,462.83713"
       id="text2401"
       style="font-size:40px;font-style:normal;font-variant:normal;font-weight:normal;font-stretch:normal;fill:#000000;fill-opacity:1;stroke:none;stroke-width:1px;stroke-linecap:butt;stroke-linejoin:miter;stroke-opacity:1;font-family:DejaVu Sans;-inkscape-font-specification:DejaVu Sans" />
  </g>
</svg>
